<?xml version="1.0" encoding="utf-8"?>
<!-- Generator: Adobe Illustrator 24.2.3, SVG Export Plug-In . SVG Version: 6.00 Build 0)  -->
<svg version="1.1" id="Layer_1" xmlns="http://www.w3.org/2000/svg" xmlns:xlink="http://www.w3.org/1999/xlink" x="0px" y="0px"
	 viewBox="0 0 1125 170" style="enable-background:new 0 0 1125 170;" xml:space="preserve">
<style type="text/css">
	.st0{fill:#1E1E1E;stroke:#000000;stroke-miterlimit:10;}
	.st1{fill:#FFFFFF;}
</style>
<rect x="0.4" y="0.5" class="st0" width="1125" height="170"/>
<g>
	<path class="st1" d="M85.8,91.5c0-3.3,0.5-6.6,1.4-9.9c0.9-3.3,2.3-6.3,4.1-8.9c1.9-2.6,4.2-4.8,7-6.6c2.8-1.7,6.2-2.7,10-2.9
		c2.4,0.1,4.5,0.5,6.5,1.2c2,0.7,3.7,1.7,5.1,2.9c1.4,1.2,2.5,2.7,3.4,4.5c0.8,1.7,1.2,3.7,1.2,5.9c0,1.1-0.1,2.1-0.2,3.1
		c-0.1,1-0.5,2-1,2.8l0.1-0.1c-0.2,0.5-0.5,1.1-0.8,1.7c-0.3,0.7-0.8,1.2-1.3,1.7c0.9,0.4,1.8,0.9,2.5,1.6c0.7,0.7,1.4,1.5,1.9,2.3
		c0.5,0.9,0.9,1.8,1.2,2.8c0.3,1,0.4,2,0.4,2.9c0.1,4.3-1,7.7-3.4,10.3c-2.4,2.5-5.8,3.8-10.3,3.8c-0.4,0-0.9,0-1.5-0.1
		c-0.6-0.1-1.3-0.2-2.3-0.4c-0.1-0.2-0.2-0.7-0.3-1.5c-0.1-0.7-0.2-1.5-0.2-2.3c0-0.8,0-1.5,0.2-2.1c0.2-0.6,0.5-1,1-1
		c0.4,0.1,0.9,0.2,1.4,0.3c0.5,0.1,0.9,0.1,1.3,0.1c1,0,2.1-0.1,3.2-0.3c1.1-0.2,2.1-0.6,3-1.1c0.9-0.5,1.6-1.1,2.2-1.8
		c0.6-0.7,0.9-1.6,0.9-2.7c0-1.1-0.2-2-0.7-2.7c-0.5-0.7-1.1-1.4-1.9-1.8c-0.8-0.5-1.6-0.8-2.6-1c-0.9-0.2-1.9-0.3-2.8-0.3
		c-0.5,0-1,0-1.5,0.1c-0.5,0.1-1.1,0.2-1.9,0.5c-0.7-0.4-1.1-1-1.4-1.6c-0.2-0.6-0.3-1.3-0.3-2c0-1.4,0.5-2.5,1.4-3.4
		c0.9,0,1.9-0.2,2.9-0.5c1-0.3,2-0.8,2.8-1.4c0.8-0.6,1.5-1.3,2.1-2.2c0.6-0.9,0.8-1.8,0.8-2.9c0-1.4-0.3-2.7-1-3.8
		c-0.7-1.1-1.5-2-2.6-2.7c-1.1-0.7-2.4-1.2-3.8-1.6c-1.5-0.3-3-0.5-4.6-0.5c-2.8,0.1-5.3,0.7-7.4,1.9c-2.1,1.2-3.9,2.8-5.4,4.7
		c-1.5,1.9-2.6,4.1-3.3,6.5c-0.7,2.4-1.1,4.9-1.1,7.4c0,1.2,0.2,2.6,0.5,4.2c0.3,1.6,0.8,3,1.5,4.4c0.7,1.4,1.6,2.5,2.7,3.4
		c1.1,0.9,2.4,1.4,3.9,1.4c1.8,0,3.3-0.7,4.5-2.1c1.2-1.4,1.9-3,2.1-4.8c0.1-1.7-0.2-3.4-0.9-4.8c-0.7-1.5-1.9-2.2-3.5-2.2
		c-1.7,0-2.7,0.4-3.1,1.2c-0.4,0.8-0.5,1.6-0.4,2.5l-0.1-0.1c0.2,0.4,0.6,0.7,1.1,0.7c0.7-0.1,1.2,0,1.5,0.3c0.3,0.2,0.4,0.8,0,1.7
		c-0.4,1.2-1,2.2-1.8,3.1c-0.8,0.9-1.5,1.1-2.2,0.6c-1.2-1.1-2.2-2.2-2.8-3.5c-0.7-1.3-1-2.6-1-3.8c0-1.2,0.2-2.3,0.7-3.4
		c0.4-1.1,1-2.1,1.8-3c0.8-0.9,1.7-1.6,2.7-2.1c1-0.5,2.2-0.7,3.4-0.7c1.7,0,3.2,0.4,4.4,1.3c1.2,0.9,2.1,2,2.9,3.3
		c0.7,1.3,1.3,2.7,1.6,4.2c0.3,1.5,0.5,2.9,0.5,4.2c0,1.5-0.2,3.1-0.6,4.8c-0.4,1.7-1.1,3.3-2,4.8c-0.9,1.5-2.1,2.7-3.6,3.6
		c-1.5,0.9-3.3,1.4-5.5,1.4c-2.4,0-4.4-0.7-6.1-2c-1.6-1.3-2.9-2.9-3.9-4.9c-1-2-1.7-4.1-2.1-6.3C86,95.4,85.8,93.3,85.8,91.5z"/>
	<path class="st1" d="M130.7,95.6c0-0.7,0.3-1.2,0.9-1.4c0.6-0.2,1.1-0.3,1.6-0.3c0.6,1.1,1.3,2.1,2.2,3.1c0.9,1,1.9,1.9,3,2.7
		c1.1,0.8,2.3,1.4,3.5,1.9c1.2,0.5,2.4,0.7,3.7,0.7c2.6,0,4.4-0.8,5.4-2.5c1-1.6,1.5-3.7,1.5-6.1c0-2-0.3-4.3-0.9-6.9
		c-0.6-2.6-1.5-5.1-2.7-7.4c-1.2-2.3-2.7-4.3-4.6-5.9c-1.8-1.6-4-2.4-6.5-2.4c-1,0-1.9,0.2-2.6,0.5c-0.7,0.3-1.4,0.7-1.9,1
		c-0.6,0.3-1,0.4-1.4,0.1c-0.4-0.2-0.7-0.6-0.9-1c-0.2-0.5-0.4-1-0.5-1.5c-0.1-0.6-0.2-1-0.2-1.4c0-1.9,0.7-3.4,2.2-4.6
		c1.5-1.1,3.2-1.7,5-1.7c2.3,0,4.4,0.5,6.3,1.6c1.9,1.1,3.6,2.5,5.1,4.3c1.5,1.8,2.8,3.8,3.9,6c1.1,2.2,2,4.5,2.8,6.9
		c0.7,2.4,1.2,4.7,1.6,6.9c0.3,2.3,0.5,4.3,0.5,6.1c0,2.4-0.2,4.5-0.6,6.5c-0.4,2-1,3.7-2,5.2c-0.9,1.5-2.2,2.6-3.8,3.4
		s-3.6,1.3-6,1.3c-1.8,0-3.6-0.3-5.3-1c-1.7-0.7-3.3-1.5-4.7-2.7s-2.5-2.5-3.4-4.1c-0.9-1.6-1.3-3.3-1.3-5.2V95.6z"/>
	<path class="st1" d="M203,65.1c1.4,0,2.7,0.3,3.8,0.8c1.1,0.5,2,1.2,2.8,2.1c0.8,0.8,1.5,1.8,2.1,2.8c0.6,1,1.1,2,1.5,3
		c0.9-2.2,2.1-4.2,3.5-6c1.5-1.8,3.1-3.3,4.9-4.4v-7.7c0-1.3,0-2.6,0-4c0-1.3,0-2.7,0-4c0-0.2,0.1-0.5,0.3-1.1
		c0.2-0.5,0.4-1.1,0.7-1.6c0.3-0.6,0.6-1.1,1-1.5c0.3-0.4,0.7-0.7,1.1-0.7c0.4,0,0.8,0.2,1.1,0.6c0.3,0.4,0.5,0.9,0.6,1.4
		c0.1,0.6,0.2,1.2,0.2,1.8c0,0.7,0,1.2,0,1.6v12.8c1.1-0.2,2.3-0.3,3.4-0.3c3,0,5.7,0.9,7.9,2.6c2.2,1.7,4,3.9,5.5,6.5
		c1.4,2.6,2.5,5.4,3.2,8.4c0.7,3,1,5.8,1,8.4c0,2-0.2,4.3-0.7,7c-0.5,2.7-1.3,5.2-2.4,7.6c-1.1,2.4-2.6,4.5-4.4,6.2
		c-1.8,1.7-4.1,2.6-6.8,2.6c-2.5,0-4.5-0.8-6.1-2.3c-1.6-1.6-2.8-3.4-3.7-5.6c-0.9-2.2-1.5-4.5-1.9-7c-0.3-2.5-0.5-4.6-0.5-6.4v-16
		c-1.1,0.9-2.1,1.9-2.8,3.1c-0.7,1.2-1.4,2.5-1.8,3.9c-0.5,1.4-0.8,2.8-1,4.1c-0.2,1.4-0.4,2.8-0.4,4.1c0,0.4,0,1.2,0,2.6
		c0,1.3-0.1,2.7-0.1,4.1c-0.1,1.4-0.1,2.8-0.1,4.2c0,1.4,0,2.3,0,2.6c0,0.2,0,0.6,0,0.9c0,0.4,0.1,0.8,0.1,1.2
		c0.1,0.3,0.1,0.7,0.1,1.2c0,0.5,0,0.8,0,1c-0.2,0.7-0.7,1.5-1.2,2.2c-0.6,0.7-1.2,1.1-1.9,1.1c-0.6,0-1-0.2-1.4-0.7
		c-0.3-0.4-0.6-0.9-0.7-1.5c-0.1-0.6-0.2-1.2-0.2-1.8c0-0.6,0-1.1,0-1.4V87.7c0-4.7-0.7-8.3-2-10.9c-1.3-2.6-2.8-3.9-4.4-3.9
		c-1.1,0-2.1,0.8-3,2.5c-0.9,1.6-1.6,4.1-2,7.3c-0.2,1.8-0.3,3.6-0.3,5.4c0,1.8,0,3.6,0,5.3v11.4c0,0.2-0.1,0.6-0.3,1.1
		c-0.2,0.5-0.5,0.9-0.8,1.4c-0.3,0.5-0.7,0.9-1.1,1.2c-0.4,0.3-0.8,0.5-1.1,0.5c-0.6,0-1-0.2-1.3-0.7c-0.3-0.5-0.5-1-0.6-1.6
		c-0.1-0.6-0.2-1.2-0.2-1.8c0-0.6,0-0.9,0-1.1c0-0.5,0-1.4,0-2.7c0-1.3-0.1-2.7-0.1-4.2c0-1.2,0-2.6-0.1-4.1
		c-0.1-1.5-0.1-2.4-0.1-2.9c-0.3-3.4-0.9-6.4-1.9-9.1c-0.9-2.7-2.1-5-3.4-6.9c-1.3-1.9-2.8-3.4-4.3-4.4c-1.6-1-3.2-1.5-4.7-1.5
		c-1.5,0-3,0.4-4.4,1.2c-1.4,0.8-2.7,1.9-3.8,3.4c-1.1,1.5-2,3.4-2.7,5.7c-0.7,2.3-1,4.9-1,8c0,1.6,0.2,3.4,0.5,5.4
		c0.3,2,0.9,3.8,1.6,5.5c0.8,1.7,1.8,3.2,3.1,4.3c1.3,1.2,2.9,1.7,4.8,1.7c1.3,0,2.4-0.3,3.4-0.8c1-0.6,1.7-1.3,2.3-2.2
		c0.6-0.9,1-1.9,1.3-3.1c0.3-1.1,0.4-2.3,0.4-3.6c0-1.1-0.1-2.2-0.3-3.4c-0.2-1.1-0.6-2.1-1.1-3c-0.5-0.9-1.2-1.6-2-2.2
		c-0.8-0.6-1.8-0.8-3-0.8c-1.4,0-2.4,0.6-3,1.7c-0.6,1.1-0.9,2.3-0.9,3.6c0,0.7,0.1,1.4,0.3,2.1c0.2,0.6,0.4,1.1,0.8,1.5
		c0.3,0.4,0.7,0.6,1.2,0.6c0.4,0,0.9-0.2,1.4-0.7c0.5,1.1,0.7,2.3,0.7,3.6c0,1.2-0.2,2.3-0.6,3.4c-0.4,1.1-1,1.6-1.9,1.6
		c-1.4,0-2.6-0.5-3.5-1.4c-0.9-0.9-1.6-2.1-2.2-3.4s-0.9-2.6-1.2-4c-0.2-1.4-0.3-2.5-0.3-3.4c0-1.4,0.1-2.8,0.4-4.4
		c0.3-1.6,0.8-3,1.4-4.3c0.7-1.3,1.6-2.4,2.8-3.3c1.2-0.9,2.7-1.3,4.5-1.3c2.2,0,4.1,0.6,5.6,1.8c1.5,1.2,2.7,2.7,3.5,4.5
		c0.9,1.8,1.5,3.7,1.8,5.7c0.3,2.1,0.5,3.9,0.5,5.6c0,1.9-0.2,3.9-0.6,6c-0.4,2.1-1.1,4-2.1,5.7c-1,1.7-2.3,3.2-3.9,4.3
		c-1.6,1.1-3.6,1.7-5.9,1.7c-3.1,0-5.6-0.9-7.6-2.7c-2-1.8-3.5-4-4.7-6.6c-1.2-2.6-1.9-5.4-2.4-8.3c-0.4-2.9-0.7-5.5-0.7-7.8
		c0-3,0.3-6.1,1-9.1c0.7-3,1.7-5.7,3.1-8.1c1.4-2.4,3.3-4.3,5.7-5.7c2.4-1.5,5.3-2.2,8.8-2.2c1.9,0,3.7,0.4,5.3,1.2
		c1.6,0.8,3.1,1.8,4.4,3.1c1.3,1.2,2.4,2.7,3.4,4.2c0.9,1.6,1.7,3.2,2.2,4.7c0.4-1.1,0.8-2.1,1.4-3.2c0.5-1.1,1.1-2,1.8-2.8
		c0.7-0.8,1.4-1.5,2.3-2.1C201,65.4,201.9,65.1,203,65.1z M226,87.4c0,1.5,0.1,3.1,0.2,4.8c0.2,1.7,0.5,3.2,1,4.7
		c0.5,1.4,1.3,2.6,2.3,3.6c1,1,2.4,1.4,4.1,1.4c1.6,0,3-0.5,4.2-1.6c1.2-1.1,2.1-2.4,2.9-4c0.7-1.6,1.3-3.3,1.6-5
		c0.3-1.8,0.5-3.4,0.5-4.8c0-1.9-0.3-3.9-0.9-6c-0.6-2.1-1.5-3.9-2.6-5.5c-1.1-1.6-2.5-3-4.1-4.1c-1.6-1.1-3.4-1.6-5.3-1.6
		c-0.5,0-1.1,0.1-1.7,0.2c-0.7,0.2-1.3,0.4-2,0.6c0,0.9,0,2.1,0,3.6c0,1.6-0.1,3.1-0.1,4.8c-0.1,1.6-0.1,3.2-0.1,4.9
		c0,1.7,0,2.8,0,3.4V87.4z"/>
	<path class="st1" d="M278.7,95.6c-0.1,2.1-0.5,4.2-1,6.2c-0.5,2-1.3,3.8-2.4,5.3c-1.1,1.6-2.5,2.8-4.1,3.7
		c-1.6,0.9-3.7,1.4-6.1,1.4c-2.9,0-5.3-0.8-7.1-2.4c-1.8-1.6-3.3-3.6-4.3-6c-1.1-2.4-1.8-5-2.1-7.7c-0.4-2.7-0.6-5.2-0.6-7.5
		c0-3.2,0.3-6.4,1-9.6c0.7-3.2,1.8-6.1,3.4-8.7c1.6-2.6,3.7-4.7,6.2-6.3c2.5-1.6,5.7-2.4,9.4-2.4c3.4,0,6.3,0.7,8.9,2.2
		c2.5,1.5,4.7,3.4,6.4,5.8c1.7,2.4,3,5,3.8,8c0.8,3,1.3,5.9,1.3,8.8c0,1.9-0.1,3.9-0.3,5.9c-0.2,2-0.6,4-1.2,5.9
		c-0.6,2-1.3,3.8-2.1,5.6c-0.9,1.8-2,3.4-3.3,4.9c-0.4,0.5-0.9,1-1.4,1.5c-0.5,0.5-1.2,0.7-2,0.7c-0.5,0-0.9-0.1-1.1-0.4
		c-0.2-0.3-0.4-0.6-0.5-1c-0.1-0.4-0.1-0.8-0.1-1.2c0-0.4,0-0.8,0-1.2v-0.5c0-1.1,0.2-1.9,0.7-2.6c0.5-0.7,1-1.3,1.7-1.9
		c0.3-0.3,0.7-0.7,1.1-1.2c0.4-0.5,0.8-0.9,1-1.2v0.1c0.9-1.9,1.6-3.9,2.1-6c0.6-2.1,0.8-4.3,0.8-6.4c0-2.3-0.3-4.5-1-6.7
		c-0.7-2.2-1.6-4.1-2.9-5.8c-1.3-1.7-3-3.1-5-4.1c-2-1-4.4-1.5-7.1-1.5c-2.8,0-5.2,0.5-7.1,1.6c-1.9,1.1-3.5,2.5-4.7,4.2
		c-1.2,1.8-2.1,3.8-2.7,6.2c-0.6,2.3-0.8,4.8-0.8,7.3c0,1.6,0.1,3.4,0.4,5.2c0.3,1.9,0.8,3.6,1.4,5.2c0.7,1.6,1.6,3,2.9,4.1
		c1.2,1.1,2.9,1.6,4.8,1.6c2.6,0,4.7-0.8,6.3-2.4c1.6-1.6,2.4-3.7,2.6-6.3c0.1-1.3,0-2.5-0.2-3.7c-0.2-1.2-0.6-2.2-1.2-3.2
		c-0.6-0.9-1.3-1.7-2.1-2.2c-0.9-0.6-1.9-0.8-3.1-0.8c-1.1-0.1-2,0.1-2.8,0.6c-0.7,0.4-1.3,1-1.7,1.7c-0.4,0.7-0.7,1.5-1,2.4
		c-0.2,0.9-0.5,1.7-0.7,2.4v0.4c-0.2,0.9-0.5,1.6-0.8,2.2c-0.3,0.6-0.8,0.9-1.5,0.9c-0.9-0.2-1.4-0.9-1.7-1.9
		c-0.3-1-0.4-1.8-0.4-2.3c0-1.5,0.2-3,0.6-4.7c0.4-1.6,1-3.1,1.8-4.4c0.8-1.3,1.9-2.4,3.2-3.2c1.3-0.8,2.9-1.3,4.7-1.3
		c2.1,0,3.9,0.5,5.5,1.6c1.5,1.1,2.8,2.5,3.7,4.1c0.9,1.7,1.6,3.5,2,5.5C278.6,92,278.8,93.8,278.7,95.6z"/>
	<path class="st1" d="M321.9,95.6c-0.1,2.1-0.5,4.2-1,6.2c-0.5,2-1.3,3.8-2.4,5.3c-1.1,1.6-2.5,2.8-4.1,3.7
		c-1.6,0.9-3.7,1.4-6.1,1.4c-2.9,0-5.3-0.8-7.1-2.4c-1.8-1.6-3.3-3.6-4.3-6c-1.1-2.4-1.8-5-2.1-7.7c-0.4-2.7-0.6-5.2-0.6-7.5
		c0-3.2,0.3-6.4,1-9.6c0.7-3.2,1.8-6.1,3.4-8.7c1.6-2.6,3.7-4.7,6.2-6.3c2.5-1.6,5.7-2.4,9.4-2.4c3.4,0,6.3,0.7,8.9,2.2
		c2.5,1.5,4.7,3.4,6.4,5.8c1.7,2.4,3,5,3.8,8c0.8,3,1.3,5.9,1.3,8.8c0,1.9-0.1,3.9-0.3,5.9c-0.2,2-0.6,4-1.2,5.9
		c-0.6,2-1.3,3.8-2.1,5.6s-2,3.4-3.3,4.9c-0.4,0.5-0.9,1-1.4,1.5c-0.5,0.5-1.2,0.7-2,0.7c-0.5,0-0.9-0.1-1.1-0.4
		c-0.2-0.3-0.4-0.6-0.5-1c-0.1-0.4-0.1-0.8-0.1-1.2c0-0.4,0-0.8,0-1.2v-0.5c0-1.1,0.2-1.9,0.7-2.6c0.5-0.7,1-1.3,1.7-1.9
		c0.3-0.3,0.7-0.7,1.1-1.2c0.4-0.5,0.8-0.9,1-1.2v0.1c0.9-1.9,1.6-3.9,2.1-6c0.6-2.1,0.8-4.3,0.8-6.4c0-2.3-0.3-4.5-1-6.7
		c-0.7-2.2-1.6-4.1-2.9-5.8c-1.3-1.7-3-3.1-5-4.1c-2-1-4.4-1.5-7.1-1.5c-2.8,0-5.2,0.5-7.1,1.6c-1.9,1.1-3.5,2.5-4.7,4.2
		c-1.2,1.8-2.1,3.8-2.7,6.2c-0.6,2.3-0.8,4.8-0.8,7.3c0,1.6,0.1,3.4,0.4,5.2c0.3,1.9,0.8,3.6,1.4,5.2c0.7,1.6,1.6,3,2.9,4.1
		c1.2,1.1,2.9,1.6,4.8,1.6c2.6,0,4.7-0.8,6.3-2.4c1.6-1.6,2.4-3.7,2.6-6.3c0.1-1.3,0-2.5-0.2-3.7c-0.2-1.2-0.6-2.2-1.2-3.2
		c-0.6-0.9-1.3-1.7-2.1-2.2c-0.9-0.6-1.9-0.8-3.1-0.8c-1.1-0.1-2,0.1-2.8,0.6c-0.7,0.4-1.3,1-1.7,1.7c-0.4,0.7-0.7,1.5-1,2.4
		c-0.2,0.9-0.5,1.7-0.7,2.4v0.4c-0.2,0.9-0.5,1.6-0.8,2.2c-0.3,0.6-0.8,0.9-1.5,0.9c-0.9-0.2-1.4-0.9-1.7-1.9
		c-0.3-1-0.4-1.8-0.4-2.3c0-1.5,0.2-3,0.6-4.7c0.4-1.6,1-3.1,1.8-4.4c0.8-1.3,1.9-2.4,3.2-3.2c1.3-0.8,2.9-1.3,4.7-1.3
		c2.1,0,3.9,0.5,5.5,1.6c1.5,1.1,2.8,2.5,3.7,4.1c0.9,1.7,1.6,3.5,2,5.5C321.8,92,322,93.8,321.9,95.6z"/>
	<path class="st1" d="M337.8,105.9c1.4-1.6,2.5-3.2,3.4-4.6c0.8-1.5,1.2-3.2,1.2-5.2V78.2c0-2.1,0.4-4.1,1.2-6
		c0.8-1.9,1.8-3.5,3.2-4.8c1.3-1.4,2.9-2.4,4.8-3.2c1.8-0.8,3.8-1.2,5.9-1.2c2.7,0,5.2,0.5,7.6,1.4c2.4,1,4.5,2.3,6.3,4
		c1.8,1.7,3.2,3.7,4.3,6c1.1,2.3,1.6,4.8,1.6,7.5c0,2.1-0.3,4.1-0.9,6c-0.6,2-1.5,3.7-2.7,5.2c-1.2,1.5-2.6,2.7-4.4,3.6
		c-1.7,0.9-3.7,1.4-6,1.4c-1.4,0-3.1-0.2-4.9-0.7c-1.9-0.5-3.6-1.1-5.3-2c-1.6-0.9-3-2-4.2-3.3c-1.2-1.3-1.7-2.9-1.7-4.7v-0.6
		c0-0.6,0.1-1.2,0.2-1.9c0.1-0.6,0.6-0.9,1.5-0.9h0.9c3.7,4.4,8.3,6.6,13.7,6.6c1.2,0,2.4-0.2,3.5-0.6c1.2-0.4,2.3-1,3.2-1.8
		c1-0.8,1.7-1.7,2.3-2.8c0.6-1.1,0.9-2.2,0.9-3.5c0-1.7-0.5-3.3-1.6-4.8c-1.1-1.4-2.4-2.6-4.1-3.6c-1.6-1-3.4-1.8-5.2-2.3
		c-1.9-0.5-3.6-0.8-5.1-0.8c-1.2,0-2.4,0.2-3.6,0.5c-1.2,0.3-2.4,0.9-3.4,1.5c-1,0.7-1.9,1.5-2.5,2.5c-0.7,1-1,2.2-1,3.5v17.5
		c0,1.1-0.1,2.1-0.3,3.3c-0.2,1.1-0.5,2.1-0.8,3.1h37.5v-0.7c0-2.9-0.1-5.8-0.3-8.8c-0.1-0.4-0.1-0.9-0.1-1.5c0-0.6,0-1.1,0-1.4
		c-0.1-1.8-0.2-3.7-0.3-5.8c-0.1-2.1-0.1-4-0.1-5.8v-4.3c-0.1-1.1,0-2.4,0.1-3.7c0.2-1.4,0.4-2.7,0.7-3.9c0.3-1.2,0.8-2.3,1.3-3.1
		c0.5-0.8,1-1.3,1.6-1.3c0.4,0,0.8,0.2,1.4,0.7c0.6,0.5,1.1,1.1,1.5,1.7c0.5,0.7,0.8,1.3,0.9,2c0.2,0.7,0,1.1-0.3,1.4
		c-0.6,0.5-1.2,1.3-1.9,2.3c-0.7,1-1,2.3-1,4v5.3c0,2.9,0.1,5.8,0.3,8.6c0.1,0.4,0.1,0.9,0.1,1.4c0,0.6,0,1,0,1.4
		c0.1,1.8,0.2,3.7,0.3,5.8c0.1,2.1,0.1,4,0.1,5.8c0,0.7-0.1,1.4-0.2,2.3c-0.2,0.8-0.4,1.6-0.7,2.4c-0.3,0.7-0.8,1.4-1.4,1.9
		c-0.6,0.5-1.4,0.8-2.3,0.8h-43.3c-0.4,0-0.7-0.2-0.9-0.5c-0.2-0.3-0.5-0.7-0.6-1.2c-0.2-0.5-0.2-0.9-0.3-1.4
		C337.6,106.4,337.7,106.1,337.8,105.9z"/>
	<path class="st1" d="M393.1,84.1c0-2,0.2-4.3,0.6-6.9s1.1-5.1,2.1-7.4c1-2.3,2.4-4.3,4.1-5.9c1.7-1.6,4-2.4,6.7-2.4
		c1.8,0,3.4,0.4,4.7,1.1c1.3,0.7,2.4,1.7,3.4,2.8c0.9,1.2,1.7,2.4,2.3,3.9c0.6,1.4,1.1,2.8,1.4,4.2c0.7-1.9,1.7-3.6,2.9-5
		c1.2-1.4,2.6-2.8,4.2-4.2V48.4c0-0.2,0.1-0.5,0.3-1.1c0.2-0.5,0.4-1.1,0.7-1.6c0.3-0.6,0.6-1,0.9-1.4c0.3-0.4,0.7-0.6,1.1-0.6
		c0.5,0,0.9,0.2,1.2,0.7c0.3,0.4,0.5,0.9,0.6,1.5c0.1,0.6,0.2,1.2,0.2,1.8c0,0.6,0,1.1,0,1.5V62c1-0.2,2.1-0.4,3.3-0.4
		c3,0,5.7,0.9,7.9,2.6c2.2,1.7,4.1,3.8,5.5,6.4c1.4,2.5,2.5,5.3,3.2,8.4c0.7,3,1.1,5.9,1.1,8.5c0,2.1-0.2,4.4-0.7,7.1
		c-0.5,2.7-1.3,5.3-2.4,7.7c-1.1,2.4-2.6,4.5-4.4,6.2c-1.8,1.7-4.1,2.5-6.8,2.5c-2.5,0-4.5-0.8-6.1-2.3c-1.6-1.6-2.8-3.4-3.7-5.6
		c-0.9-2.2-1.5-4.5-1.8-7c-0.3-2.5-0.5-4.6-0.5-6.4V74c-1.5,2.2-2.6,4.7-3.4,7.5c-0.8,2.8-1.2,5.4-1.4,7.7v2.5c0,0.9,0,1.8,0,2.9
		c0,1.1,0,2.2,0,3.4v8.4c0,0.4-0.3,0.9-0.8,1.3c-0.5,0.4-1,0.8-1.5,1.1l-0.6,0.3h0.1c-0.1,0.1-0.1,0.1-0.1,0.1c0,0-0.1,0-0.1,0.1
		c-0.1,0.1-0.2,0.1-0.4,0.1c-0.9-0.5-1.5-1-1.6-1.5c-0.1-0.5-0.2-1.1-0.1-1.8V89.4c0-0.2,0-0.4,0-0.6c0-0.2,0-0.4,0-0.6
		c-0.1-1.7-0.2-3.6-0.4-5.7c-0.2-2.1-0.6-4.1-1.1-6c-0.6-1.9-1.4-3.5-2.5-4.8c-1.1-1.3-2.6-1.9-4.5-1.9c-1.7,0-3.1,0.5-4.2,1.4
		c-1.2,0.9-2.1,2.1-2.7,3.5c-0.7,1.4-1.1,2.9-1.4,4.6c-0.3,1.6-0.4,3.2-0.4,4.5c0,3.4,0.5,6.7,1.4,10c0.9,3.2,2.7,6,5.2,8.2
		c0.1,0.1,0.3,0.3,0.6,0.5c0.3,0.2,0.5,0.3,0.8,0.5c0.1,0,0.1,0,0.2,0c0.1,0,0.2,0,0.2,0c0.7,0.3,1.3,0.7,1.7,1.2
		c0.5,0.5,0.7,1.6,0.7,3.2c0,0.7-0.1,1.6-0.3,2.4c-0.2,0.9-0.9,1.3-2.1,1.3c-2.6-0.6-4.8-1.9-6.5-3.8c-1.7-1.9-3.1-4.2-4.1-6.8
		c-1-2.6-1.7-5.3-2.1-8.3C393.3,89.5,393.1,86.7,393.1,84.1z M429.7,88.1c0,1.4,0.1,3,0.2,4.7c0.2,1.7,0.5,3.2,1,4.7
		c0.5,1.4,1.3,2.6,2.3,3.6c1,1,2.4,1.4,4.1,1.4c1.7,0,3.1-0.5,4.2-1.6c1.1-1.1,2.1-2.4,2.8-3.9c0.7-1.6,1.2-3.2,1.6-5
		c0.3-1.8,0.5-3.4,0.5-4.8c0-1.9-0.3-3.9-0.9-5.9c-0.6-2-1.5-3.9-2.6-5.5c-1.1-1.6-2.5-3-4.1-4.1c-1.6-1.1-3.3-1.6-5.3-1.6
		c-0.5,0-1.1,0.1-1.7,0.2c-0.7,0.1-1.3,0.3-2,0.5c0,0.9,0,2.1,0,3.6c0,1.5-0.1,3.2-0.1,5c-0.1,1.8-0.1,3.5-0.1,5c0,1.6,0,2.6,0,3.2
		V88.1z"/>
	<path class="st1" d="M474.3,107.6c0-1.2,0.4-2.3,1.3-3.2h-0.1c0.2-0.2,0.7-0.4,1.4-0.7c0.1,0,0.2-0.1,0.5-0.2
		c0.6-0.2,1.3-0.5,2.1-0.8c0.9-0.3,1.7-0.7,2.6-1c0.9-0.3,1.7-0.7,2.4-0.9c0.7-0.3,1.2-0.5,1.4-0.6c1.9-0.7,4.3-1.9,7.1-3.4
		c2.8-1.6,5.6-3.4,8.4-5.5c2.8-2.1,5.2-4.3,7.4-6.8c2.2-2.5,3.5-5,4.1-7.5c-0.1-1.5-0.7-2.8-1.9-3.9c-1.1-1.1-2.4-2-4-2.7
		c-1.5-0.7-3.1-1.2-4.8-1.5c-1.7-0.3-3.1-0.5-4.3-0.5c-1.5,0-3.1,0.1-4.9,0.4c-1.8,0.2-3.5,0.7-5.2,1.3c-1.6,0.6-3.1,1.4-4.4,2.5
		c-1.3,1-2.2,2.3-2.7,3.8v-0.1c-0.3,1.6-0.5,2.7-0.5,3.4c0,1.9,0.5,3.5,1.5,4.9c1,1.4,2.1,2.6,3.4,3.6c1.3,1,2.5,1.7,3.7,2.2
		c1.2,0.5,2,0.8,2.4,0.9v1.1c0,0.4,0,0.8,0,1.3c0,0.5-0.1,0.9-0.2,1.4c-0.2,0.4-0.4,0.8-0.7,1.1c-0.3,0.3-0.7,0.5-1.3,0.5
		c-2.1,0-3.9-0.6-5.5-1.7c-1.6-1.1-2.9-2.6-4.1-4.4c-1.1-1.8-2-3.7-2.6-5.9c-0.6-2.1-0.9-4.2-0.9-6.2c0-3,0.7-5.6,2-7.7
		c1.3-2.2,3-4,5.1-5.4c2.1-1.4,4.5-2.5,7.1-3.2c2.6-0.7,5.3-1,7.9-1c2.4,0,4.8,0.3,7,1c2.3,0.7,4.3,1.7,6,3c1.7,1.3,3.1,3,4.1,5.1
		c1,2.1,1.5,4.4,1.5,7.1c0,0.8,0,1.5,0,2.1c0,0.6-0.2,1.3-0.5,2c0.8,0.1,1.4,0.5,1.6,1.1c0.3,0.6,0.4,1.4,0.4,2.2
		c0,0.7,0,1.3-0.1,1.9c-0.1,0.6-0.2,1.2-0.3,1.8c-0.1,0.2-0.1,0.4-0.1,0.5c0,0.2,0,0.3-0.1,0.5c-0.1,0.2-0.1,0.5-0.1,0.7
		c0,0.2-0.1,0.4-0.1,0.7c-0.1,0.6-0.2,1.1-0.3,1.6c-0.1,0.5-0.1,0.9-0.1,1.3c0,1.1,0.1,2.3,0.2,3.4c0.1,1.2,0.3,2.3,0.5,3.4
		c0.2,1.1,0.4,2.1,0.7,2.9s0.5,1.4,0.7,1.8c0,0.3-0.1,0.7-0.2,1.3c-0.1,0.6-0.3,1.1-0.6,1.6c-0.3,0.5-0.6,1-1,1.4
		c-0.4,0.4-0.8,0.6-1.3,0.6c-1.4,0-2.9,0-4.4-0.1c-1.5-0.1-2.9-0.2-4.2-0.3c-0.2,0-0.5,0-0.8,0c-0.3,0-0.6,0-0.8,0
		c-1.1-0.1-2.3-0.2-3.4-0.3c-1.2-0.1-2.3-0.1-3.3-0.1c-1.9,0-3.8,0-5.8,0.1c-2,0.1-4,0.2-5.9,0.4c-2,0.2-3.8,0.4-5.6,0.7
		c-1.8,0.2-3.3,0.5-4.7,0.7c-1.2,0-1.9-0.4-2.3-1.2C474.4,109.1,474.3,108.4,474.3,107.6z M512.6,102.4c-0.4-1.9-0.7-3.8-0.8-5.5
		c-0.2-1.7-0.3-3.6-0.3-5.5v-0.1c-1.9,2.2-4,4.2-6.2,5.9c-2.2,1.7-4.7,3.3-7.6,4.8c2.2,0.1,4.5,0.2,6.9,0.2
		C507.1,102.2,509.7,102.3,512.6,102.4z"/>
	<path class="st1" d="M522.4,95.6c0-0.7,0.3-1.2,0.9-1.4c0.6-0.2,1.1-0.3,1.6-0.3c0.6,1.1,1.3,2.1,2.2,3.1c0.9,1,1.9,1.9,3,2.7
		c1.1,0.8,2.3,1.4,3.5,1.9c1.2,0.5,2.4,0.7,3.7,0.7c2.6,0,4.4-0.8,5.4-2.5c1-1.6,1.5-3.7,1.5-6.1c0-2-0.3-4.3-0.9-6.9
		c-0.6-2.6-1.5-5.1-2.7-7.4c-1.2-2.3-2.7-4.3-4.6-5.9c-1.8-1.6-4-2.4-6.5-2.4c-1,0-1.9,0.2-2.6,0.5c-0.7,0.3-1.4,0.7-1.9,1
		c-0.6,0.3-1,0.4-1.4,0.1c-0.4-0.2-0.7-0.6-0.9-1c-0.2-0.5-0.4-1-0.5-1.5c-0.1-0.6-0.2-1-0.2-1.4c0-1.9,0.7-3.4,2.2-4.6
		c1.5-1.1,3.2-1.7,5-1.7c2.3,0,4.4,0.5,6.3,1.6c1.9,1.1,3.6,2.5,5.1,4.3c1.5,1.8,2.8,3.8,3.9,6c1.1,2.2,2,4.5,2.8,6.9
		c0.7,2.4,1.2,4.7,1.6,6.9c0.3,2.3,0.5,4.3,0.5,6.1c0,2.4-0.2,4.5-0.6,6.5c-0.4,2-1,3.7-2,5.2c-0.9,1.5-2.2,2.6-3.8,3.4
		c-1.6,0.8-3.6,1.3-6,1.3c-1.8,0-3.6-0.3-5.3-1c-1.7-0.7-3.3-1.5-4.7-2.7c-1.4-1.1-2.5-2.5-3.4-4.1c-0.9-1.6-1.3-3.3-1.3-5.2V95.6z"
		/>
	<path class="st1" d="M552.4,98.1c0-2.5,0.5-4.7,1.6-6.6c1.1-1.9,2.4-3.5,4.1-4.8c1.7-1.3,3.6-2.2,5.6-2.9c2.1-0.7,4.1-1,6.2-1
		c1.7,0,3.4,0.2,4.9,0.7c1.6,0.5,2.9,1.2,4,2.1c1.1,0.9,2,2.1,2.6,3.5c0.6,1.4,0.8,3.1,0.6,4.9c-0.1,0.5-0.4,1.2-0.8,2
		c-0.4,0.8-0.9,1.7-1.4,2.6c-0.1,0.1-0.1,0.1,0,0c0.1,0,0.1,0,0,0c-0.1,0.1-0.1,0.1-0.1,0.1s0,0.1-0.1,0.1v-0.2
		c-0.3,0.6-0.6,1.2-0.8,1.9c-0.2,0.6-0.4,1.1-0.4,1.5c0.4,0.2,1.1,0.5,1.9,0.7c0.8,0.2,1.8,0.4,2.8,0.5c1.1,0.2,2.2,0.3,3.4,0.4
		s2.4,0.1,3.7,0.1c2,0,4-0.1,6-0.3c2-0.2,3.8-0.5,5.4-0.8c1.6-0.4,2.9-0.9,3.9-1.4c1-0.6,1.5-1.3,1.5-2.1c-0.1-1.4-0.1-2.8-0.2-4.2
		c-0.1-1.4-0.2-2.8-0.4-4.3c-0.3-2.3-0.6-4.5-0.7-6.6c-0.2-2.1-0.3-4.4-0.5-6.8c-1.1,0.4-2.2,0.7-3.4,0.9c-1.2,0.2-2.4,0.4-3.6,0.5
		c-1.2,0.1-2.4,0.2-3.4,0.2c-1.1,0-2,0-2.8,0c-1.2,0-2.7,0-4.4-0.1c-1.8-0.1-3.5-0.3-5.2-0.7c-1.7-0.4-3.1-1-4.2-1.8
		c-1.2-0.8-1.7-1.9-1.5-3.4c0.1-0.7,0.3-1.4,0.6-2.1c0.3-0.6,0.8-1.2,1.3-1.8c0.4-0.4,0.7-0.9,1-1.4c0.3-0.5,0.4-1,0.4-1.5
		c0-1.2-0.7-2.2-2.1-2.8c-1.4-0.6-3-0.9-4.9-0.9c-1.2,0-2.5,0.1-3.7,0.4c-1.2,0.3-2.4,0.7-3.4,1.2c-1,0.5-1.8,1.1-2.4,1.9
		c-0.6,0.7-0.9,1.6-0.9,2.6c0,0.7,0.2,1.5,0.7,2.1c0.5,0.7,1,1.3,1.6,1.8c0.6,0.5,1.3,0.9,2,1.2c0.7,0.3,1.3,0.5,1.8,0.6v0.7
		c0,0.1,0,0.2,0,0.2c0,0,0,0.1,0,0.2c0.1,0.7,0.1,1.6,0,2.4c-0.1,0.9-0.6,1.4-1.5,1.6c-1.2,0-2.4-0.4-3.4-1.1
		c-1-0.7-1.9-1.7-2.8-2.8c-0.8-1.1-1.4-2.3-1.9-3.5c-0.4-1.2-0.7-2.3-0.7-3.2c0-1.9,0.5-3.7,1.4-5.2c0.9-1.6,2.1-2.9,3.6-3.9
		c1.5-1.1,3.1-1.9,4.9-2.4c1.8-0.6,3.6-0.8,5.4-0.8c1.5,0,2.9,0.2,4.3,0.6c1.4,0.4,2.6,1,3.6,1.8c1,0.8,1.8,1.8,2.3,2.9
		c0.5,1.2,0.7,2.5,0.5,4.1c-0.1,0.4-0.3,0.9-0.5,1.3c-0.2,0.4-0.5,0.9-0.8,1.4c-0.2,0.2-0.3,0.5-0.5,0.8c-0.3,0.5-0.6,1-0.9,1.5
		c-0.3,0.5-0.4,0.9-0.3,1c0.5,0.5,1.7,0.9,3.6,1.1c1.9,0.2,4,0.4,6.4,0.4c1.4,0,2.8-0.1,4.1-0.2c1.4-0.1,2.7-0.3,4-0.5
		c1.2-0.2,2.4-0.5,3.4-0.8c1-0.3,1.8-0.7,2.4-1.2c-0.1-1.6-0.1-3.1-0.1-4.6c0-1.5,0-3.1,0-4.8v-1.9c-0.1-2.6,0-4.8,0.3-6.7
		c0.3-1.9,1.1-2.8,2.4-2.8c0.9,0,1.8,0.4,2.8,1.2h-0.1c0.7,0.4,1.2,0.9,1.4,1.6c0.3,0.7,0.4,1.5,0.4,2.4c0,0.5,0,1.1,0,1.7
		c0,0.7-0.1,1.3-0.2,1.9c-0.1,0.7-0.1,1.4-0.2,2c-0.1,0.7-0.1,1.3-0.2,2c-0.1,2.4-0.2,4.9-0.3,7.3c-0.1,2.5-0.1,4.9-0.1,7.3
		c0,2.3,0,4.6,0.1,6.9c0.1,2.3,0.2,4.6,0.3,7l0.2,3.3c0.1,0.8,0.1,1.6,0.2,2.4c0.1,0.8,0.2,1.9,0.3,3.2c0,2.7-0.8,4.8-2.4,6.2
		c-1.6,1.4-3.6,2.5-5.8,3.2c-2.3,0.7-4.6,1.1-7.1,1.2c-2.5,0.1-4.5,0.1-6.2,0.1c-1.3,0-3-0.1-5-0.2c-2-0.1-4-0.4-5.9-0.9
		c-1.9-0.5-3.6-1.2-4.9-2.2c-1.3-1-2-2.4-1.9-4.2c0.1-0.9,0.3-1.6,0.7-2.2c0.4-0.6,0.7-1.2,1.1-1.7c0.1-0.1,0.2-0.2,0.2-0.4
		c0-0.1,0.1-0.2,0.2-0.4c0.4-0.5,0.8-1.1,1.2-1.7c0.4-0.7,0.6-1.4,0.6-2.1c0-1.6-0.9-2.8-2.6-3.6c-1.7-0.8-3.6-1.2-5.7-1.2
		c-1.4,0-2.9,0.2-4.3,0.5c-1.4,0.3-2.7,0.8-3.9,1.5c-1.2,0.7-2.1,1.5-2.8,2.4c-0.7,1-1.1,2.1-1.1,3.4c0,0.9,0.3,1.8,0.8,2.7
		c0.5,0.9,1.2,1.6,1.9,2.3c0.7,0.7,1.5,1.2,2.3,1.6c0.8,0.4,1.4,0.6,2,0.7v0.7c0,0.1,0,0.2,0,0.3c0,0.1,0,0.2,0,0.3
		c0.1,0.4,0.1,0.8,0.1,1.3c0,0.5,0,1-0.1,1.4c-0.1,0.5-0.3,0.9-0.5,1.3c-0.2,0.4-0.6,0.6-1,0.7c-1.4,0-2.7-0.5-3.9-1.4
		c-1.2-0.9-2.2-2.1-3.1-3.4c-0.9-1.3-1.6-2.8-2.1-4.3C552.6,100.6,552.4,99.3,552.4,98.1z"/>
	<path class="st1" d="M590,57.6c-0.7,0.1-1.4,0-2-0.2c-0.6-0.2-1.1-0.5-1.5-0.9c-0.4-0.4-0.7-0.8-0.9-1.2c-0.2-0.4-0.4-0.7-0.4-1
		c-0.3-1.7,0-3.2,0.9-4.4c0.9-1.3,2.2-2.3,4-3.2c1.8-0.8,3.9-1.5,6.4-1.9c2.5-0.4,5.3-0.6,8.2-0.6c1.5,0,3.3,0.1,5.5,0.4
		c2.1,0.3,4.2,0.9,6.2,2c2,1.1,3.7,2.6,5.1,4.8c1.4,2.1,2.1,5,2.1,8.7v63.7c0,0.5,0,1-0.1,1.5c-0.1,0.5-0.5,0.8-1.4,0.8
		c-0.9,0-1.6-0.3-2.2-1c-0.6-0.7-0.9-1.5-0.9-2.5V60.2c0-1.2-0.4-2.3-1.1-3.3c-0.7-1-1.8-1.9-3.1-2.6c-1.3-0.7-2.8-1.2-4.6-1.6
		c-1.8-0.4-3.7-0.6-5.6-0.6c-7.6,0-12.2,1.1-14,3.2c-0.1,0.2-0.1,0.4,0,0.6c0.1,0.2,0.2,0.4,0.3,0.6c0.1,0.2,0.1,0.4,0,0.6
		C590.8,57.3,590.5,57.5,590,57.6z"/>
	<path class="st1" d="M626.5,112.8c0-1.2,0.2-2.2,0.7-3.1c0.5-0.9,1.1-1.7,1.9-2.3c0.8-0.7,1.7-1.2,2.8-1.7c1.1-0.5,2.2-0.9,3.4-1.2
		c-1.6-0.5-3-1.4-4.1-2.8c-1.1-1.3-2.1-2.9-2.8-4.6c-0.7-1.7-1.3-3.5-1.6-5.3c-0.3-1.8-0.5-3.4-0.5-4.9c0-3.4,0.4-6.6,1.1-9.6
		c0.7-3,1.8-5.7,3.4-8c1.5-2.3,3.5-4.2,6-5.6c2.5-1.4,5.5-2.2,9-2.4c2.2-0.2,4.6,0,7.1,0.7c2.6,0.7,4.9,1.9,6.9,3.7
		c1.2,1.1,2.2,2.5,3.1,4.2c0.9,1.7,1.3,3.4,1.3,5.1c0,1.3-0.1,2.4-0.2,3.3c-0.1,0.9-0.3,1.7-0.7,2.5c-0.6,1.2-1.2,2.3-1.9,3.2
		c-0.6,1-1.3,1.8-2.1,2.4c1.8,0.8,2.9,1.9,3.4,3.3c0.4,1.4,0.7,2.9,0.7,4.5c0,2.9-0.8,5.3-2.3,7.2c-1.5,1.9-3.4,3.4-5.7,4.5
		c-2.3,1.1-4.8,2-7.6,2.6c-2.7,0.6-5.3,1.1-7.7,1.4c-2.4,0.4-4.3,0.7-5.9,1.1c-1.6,0.3-2.4,0.8-2.4,1.3c0,0.3,0.3,0.6,0.8,0.7
		c0.6,0.2,1.2,0.3,2,0.5c0.7,0.1,1.5,0.2,2.3,0.3c0.8,0.1,1.4,0.1,1.7,0.1c3.4,0,6.6-0.1,9.8-0.3c3.2-0.2,6.5-0.8,9.8-2l0.7-0.2
		h-0.1c0.1-0.1,0.3-0.1,0.5-0.1c0.2,0,0.4-0.1,0.6-0.1h-0.1c0.5-0.2,0.9-0.4,1.4-0.5c0.4-0.2,0.8-0.2,1.1-0.2h0.4
		c0.9,0,1.4,0.3,1.5,0.8c0.1,0.6,0.2,1.1,0.2,1.8v0.7c0,0.9-0.4,1.7-1.3,2.4c-0.9,0.7-2,1.3-3.4,1.8c-1.4,0.5-2.9,0.9-4.6,1.3
		c-1.7,0.3-3.3,0.6-4.9,0.8c-1.6,0.2-3.1,0.3-4.5,0.4c-1.4,0.1-2.5,0.1-3.2,0.1c-1.2,0-2.7,0-4.5-0.1c-1.8-0.1-3.5-0.4-5.2-0.9
		c-1.7-0.5-3.1-1.3-4.3-2.3C627.1,116.2,626.5,114.8,626.5,112.8z M640.6,79.5c0.9,0,1.8,0.2,2.7,0.6c0.9,0.4,1.7,0.9,2.5,1.5
		c0.7,0.7,1.4,1.4,2,2.2c0.6,0.8,0.9,1.7,1.1,2.7c0.3-0.6,0.8-1,1.5-1.3c0.7-0.2,1.5-0.5,2.4-0.8c1.2-0.3,2.5-1.2,3.6-2.7
		c1.2-1.5,1.8-3.1,2-5c-0.3-1.4-0.9-2.7-1.7-3.8c-0.8-1.1-1.8-2.1-2.9-2.8c-1.1-0.8-2.3-1.4-3.5-1.8c-1.2-0.4-2.4-0.6-3.5-0.6
		c-2.8,0-5.2,0.5-7.2,1.6c-2,1.1-3.6,2.5-4.9,4.2c-1.3,1.7-2.2,3.7-2.8,6c-0.6,2.3-0.9,4.6-0.9,7.1c0,1.3,0.1,2.6,0.3,4
		c0.2,1.4,0.6,2.6,1.2,3.7c0.6,1.1,1.4,2,2.4,2.8c1,0.7,2.3,1.1,3.8,1.1c1.9,0,3.4-0.7,4.5-2c1.1-1.3,1.6-2.9,1.6-4.8
		c0-1.6-0.4-2.9-1.1-3.9c-0.7-1-1.9-1.5-3.5-1.5c-1.1,0-1.8,0.3-2.3,0.8c-0.5,0.5-0.7,1.1-0.7,1.8c0,1.1,0.5,1.9,1.5,2.4
		c0,0.2-0.1,0.6-0.4,1.1c-0.2,0.6-0.5,1.1-0.8,1.7c-0.3,0.6-0.7,1.1-1,1.5c-0.4,0.5-0.7,0.7-0.9,0.7c-0.9,0.1-1.7-0.5-2.2-1.7
		c-0.5-1.2-0.8-2.7-0.8-4.5c0-1.2,0.1-2.4,0.4-3.6c0.3-1.2,0.7-2.4,1.4-3.4c0.7-1,1.5-1.9,2.5-2.5C637.7,79.8,639,79.5,640.6,79.5z
		 M649.2,90.6c0,2.8-0.5,5.2-1.4,7.3c-1,2.1-2.3,3.7-3.9,4.9c0.6-0.1,1.2-0.2,1.7-0.3c0.5-0.1,1-0.2,1.5-0.3l0.8-0.1
		c0.9-0.2,1.9-0.4,3.1-0.7c1.2-0.3,2.4-0.7,3.4-1.3c1.1-0.5,2-1.2,2.8-1.9c0.8-0.7,1.2-1.7,1.2-2.8c0-1-0.2-1.8-0.7-2.5
		c-0.4-0.7-1-1.1-1.7-1.4c-0.7-0.3-1.4-0.5-2.2-0.6c-0.8-0.1-1.6,0-2.2,0.1C650.6,91.3,649.7,91.1,649.2,90.6z"/>
	<path class="st1" d="M667.3,98.1c0-2.5,0.5-4.7,1.6-6.6c1.1-1.9,2.4-3.5,4.1-4.8c1.7-1.3,3.6-2.2,5.6-2.9c2.1-0.7,4.1-1,6.2-1
		c1.7,0,3.4,0.2,4.9,0.7c1.6,0.5,2.9,1.2,4,2.1c1.1,0.9,2,2.1,2.6,3.5c0.6,1.4,0.8,3.1,0.6,4.9c-0.1,0.5-0.4,1.2-0.8,2
		c-0.4,0.8-0.9,1.7-1.4,2.6c-0.1,0.1-0.1,0.1,0,0c0.1,0,0.1,0,0,0c-0.1,0.1-0.1,0.1-0.1,0.1s0,0.1-0.1,0.1v-0.2
		c-0.3,0.6-0.6,1.2-0.8,1.9c-0.2,0.6-0.4,1.1-0.4,1.5c0.4,0.2,1.1,0.5,1.9,0.7c0.8,0.2,1.8,0.4,2.8,0.5c1.1,0.2,2.2,0.3,3.4,0.4
		c1.2,0.1,2.4,0.1,3.7,0.1c2,0,4-0.1,6-0.3c2-0.2,3.8-0.5,5.4-0.8c1.6-0.4,2.9-0.9,3.9-1.4c1-0.6,1.5-1.3,1.5-2.1
		c-0.1-1.4-0.1-2.8-0.2-4.2c-0.1-1.4-0.2-2.8-0.4-4.3c-0.3-2.3-0.6-4.5-0.7-6.6c-0.2-2.1-0.3-4.4-0.5-6.8c-1.1,0.4-2.2,0.7-3.4,0.9
		c-1.2,0.2-2.4,0.4-3.6,0.5c-1.2,0.1-2.4,0.2-3.4,0.2c-1.1,0-2,0-2.8,0c-1.2,0-2.7,0-4.4-0.1c-1.8-0.1-3.5-0.3-5.2-0.7
		c-1.7-0.4-3.1-1-4.2-1.8c-1.2-0.8-1.7-1.9-1.5-3.4c0.1-0.7,0.3-1.4,0.6-2.1c0.3-0.6,0.8-1.2,1.3-1.8c0.4-0.4,0.7-0.9,1-1.4
		c0.3-0.5,0.4-1,0.4-1.5c0-1.2-0.7-2.2-2.1-2.8c-1.4-0.6-3-0.9-4.9-0.9c-1.2,0-2.5,0.1-3.7,0.4c-1.2,0.3-2.4,0.7-3.4,1.2
		c-1,0.5-1.8,1.1-2.4,1.9c-0.6,0.7-0.9,1.6-0.9,2.6c0,0.7,0.2,1.5,0.7,2.1c0.5,0.7,1,1.3,1.6,1.8c0.6,0.5,1.3,0.9,2,1.2
		c0.7,0.3,1.3,0.5,1.8,0.6v0.7c0,0.1,0,0.2,0,0.2c0,0,0,0.1,0,0.2c0.1,0.7,0.1,1.6,0,2.4c-0.1,0.9-0.6,1.4-1.5,1.6
		c-1.2,0-2.4-0.4-3.4-1.1c-1-0.7-1.9-1.7-2.8-2.8c-0.8-1.1-1.4-2.3-1.9-3.5c-0.4-1.2-0.7-2.3-0.7-3.2c0-1.9,0.5-3.7,1.4-5.2
		c0.9-1.6,2.1-2.9,3.6-3.9c1.5-1.1,3.1-1.9,4.9-2.4c1.8-0.6,3.6-0.8,5.4-0.8c1.5,0,2.9,0.2,4.3,0.6c1.4,0.4,2.6,1,3.6,1.8
		c1,0.8,1.8,1.8,2.3,2.9c0.5,1.2,0.7,2.5,0.5,4.1c-0.1,0.4-0.3,0.9-0.5,1.3c-0.2,0.4-0.5,0.9-0.8,1.4c-0.2,0.2-0.3,0.5-0.5,0.8
		c-0.3,0.5-0.6,1-0.9,1.5c-0.3,0.5-0.4,0.9-0.3,1c0.5,0.5,1.7,0.9,3.6,1.1c1.9,0.2,4,0.4,6.4,0.4c1.4,0,2.8-0.1,4.1-0.2
		c1.4-0.1,2.7-0.3,4-0.5c1.2-0.2,2.4-0.5,3.4-0.8c1-0.3,1.8-0.7,2.4-1.2c-0.1-1.6-0.1-3.1-0.1-4.6c0-1.5,0-3.1,0-4.8v-1.9
		c-0.1-2.6,0-4.8,0.3-6.7c0.3-1.9,1.1-2.8,2.4-2.8c0.9,0,1.8,0.4,2.8,1.2h-0.1c0.7,0.4,1.2,0.9,1.4,1.6c0.3,0.7,0.4,1.5,0.4,2.4
		c0,0.5,0,1.1,0,1.7c0,0.7-0.1,1.3-0.2,1.9c-0.1,0.7-0.1,1.4-0.2,2c-0.1,0.7-0.1,1.3-0.2,2c-0.1,2.4-0.2,4.9-0.3,7.3
		c-0.1,2.5-0.1,4.9-0.1,7.3c0,2.3,0,4.6,0.1,6.9c0.1,2.3,0.2,4.6,0.3,7l0.2,3.3c0.1,0.8,0.1,1.6,0.2,2.4c0.1,0.8,0.2,1.9,0.3,3.2
		c0,2.7-0.8,4.8-2.4,6.2c-1.6,1.4-3.6,2.5-5.8,3.2c-2.3,0.7-4.6,1.1-7.1,1.2c-2.5,0.1-4.5,0.1-6.2,0.1c-1.3,0-3-0.1-5-0.2
		c-2-0.1-4-0.4-5.9-0.9c-1.9-0.5-3.6-1.2-4.9-2.2c-1.3-1-2-2.4-1.9-4.2c0.1-0.9,0.3-1.6,0.7-2.2c0.4-0.6,0.7-1.2,1.1-1.7
		c0.1-0.1,0.2-0.2,0.2-0.4c0-0.1,0.1-0.2,0.2-0.4c0.4-0.5,0.8-1.1,1.2-1.7c0.4-0.7,0.6-1.4,0.6-2.1c0-1.6-0.9-2.8-2.6-3.6
		c-1.7-0.8-3.6-1.2-5.7-1.2c-1.4,0-2.9,0.2-4.3,0.5c-1.4,0.3-2.7,0.8-3.9,1.5c-1.2,0.7-2.1,1.5-2.8,2.4c-0.7,1-1.1,2.1-1.1,3.4
		c0,0.9,0.3,1.8,0.8,2.7c0.5,0.9,1.2,1.6,1.9,2.3c0.7,0.7,1.5,1.2,2.3,1.6c0.8,0.4,1.4,0.6,2,0.7v0.7c0,0.1,0,0.2,0,0.3
		c0,0.1,0,0.2,0,0.3c0.1,0.4,0.1,0.8,0.1,1.3c0,0.5,0,1-0.1,1.4c-0.1,0.5-0.3,0.9-0.5,1.3c-0.2,0.4-0.6,0.6-1,0.7
		c-1.4,0-2.7-0.5-3.9-1.4c-1.2-0.9-2.2-2.1-3.1-3.4c-0.9-1.3-1.6-2.8-2.1-4.3C667.6,100.6,667.3,99.3,667.3,98.1z"/>
	<path class="st1" d="M730.7,95.6c0-0.7,0.3-1.2,0.9-1.4c0.6-0.2,1.1-0.3,1.6-0.3c0.6,1.1,1.3,2.1,2.2,3.1c0.9,1,1.9,1.9,3,2.7
		c1.1,0.8,2.3,1.4,3.5,1.9c1.2,0.5,2.4,0.7,3.7,0.7c2.6,0,4.4-0.8,5.4-2.5c1-1.6,1.5-3.7,1.5-6.1c0-2-0.3-4.3-0.9-6.9
		c-0.6-2.6-1.5-5.1-2.7-7.4c-1.2-2.3-2.7-4.3-4.6-5.9c-1.8-1.6-4-2.4-6.5-2.4c-1,0-1.9,0.2-2.6,0.5c-0.7,0.3-1.4,0.7-1.9,1
		c-0.6,0.3-1,0.4-1.4,0.1c-0.4-0.2-0.7-0.6-0.9-1c-0.2-0.5-0.4-1-0.5-1.5c-0.1-0.6-0.2-1-0.2-1.4c0-1.9,0.7-3.4,2.2-4.6
		c1.5-1.1,3.2-1.7,5-1.7c2.3,0,4.4,0.5,6.3,1.6c1.9,1.1,3.6,2.5,5.1,4.3c1.5,1.8,2.8,3.8,3.9,6c1.1,2.2,2,4.5,2.8,6.9
		c0.7,2.4,1.2,4.7,1.6,6.9c0.3,2.3,0.5,4.3,0.5,6.1c0,2.4-0.2,4.5-0.6,6.5c-0.4,2-1,3.7-2,5.2c-0.9,1.5-2.2,2.6-3.8,3.4
		c-1.6,0.8-3.6,1.3-6,1.3c-1.8,0-3.6-0.3-5.3-1c-1.7-0.7-3.3-1.5-4.7-2.7c-1.4-1.1-2.5-2.5-3.4-4.1c-0.9-1.6-1.3-3.3-1.3-5.2V95.6z"
		/>
	<path class="st1" d="M797.3,117.9c-0.7,1.6-1.7,3-3,4.1c-1.3,1.1-2.8,2.1-4.6,2.8c-1.7,0.7-3.6,1.3-5.6,1.7c-2,0.4-4.1,0.6-6.1,0.6
		c-2.6,0-5.1-0.3-7.5-0.8c-2.4-0.6-4.4-1.4-6-2.4c-0.9-0.7-1.7-1.7-2.4-3c-0.7-1.3-1.1-2.6-1.1-3.8c0-1.2,0.6-2.3,1.7-3.3l0.7,0.9
		h-0.1c0.4,0.3,0.9,0.7,1.6,1.3c0.7,0.5,1.7,1,2.9,1.5c1.2,0.5,2.8,0.9,4.6,1.3c1.8,0.4,4,0.6,6.5,0.6c2.5-0.1,4.6-0.3,6.2-0.7
		c1.7-0.4,3-0.8,4-1.4c1-0.6,1.7-1.2,2.1-1.8c0.4-0.7,0.6-1.3,0.6-1.9c0-0.5-0.1-0.9-0.4-1.4c-0.3-0.4-0.6-0.7-1-0.9
		c-1.4-0.7-3.2-1.2-5.4-1.6c-2.2-0.4-4.6-0.7-7-0.9c-2.5-0.2-4.9-0.4-7.3-0.4c-2.4-0.1-4.5-0.1-6.2-0.1c-0.7-0.9-1.3-1.9-1.7-2.9
		c-0.4-1-0.7-2-0.7-2.8c-0.1-0.9,0-1.6,0.2-2.2c0.2-0.6,0.5-1,1-1.2c0.5,0.1,1.1,0.1,1.8,0.1c0.7,0,1.4,0,2.1,0
		c2.2,0,4.8-0.1,7.6-0.4c2.9-0.2,5.5-0.6,8-1.2c2.5-0.5,4.6-1.2,6.3-2.1c1.7-0.9,2.6-1.9,2.6-3.2c0-0.6-0.3-1-0.8-1.4
		c-0.6-0.4-1.3-0.7-2.3-0.9c-1-0.2-2.1-0.5-3.4-0.6c-1.3-0.2-2.6-0.3-4-0.4c-2.3-0.2-4.7-0.6-7.1-0.9c-2.4-0.4-4.6-1-6.7-1.9
		c-2-0.9-3.7-2.1-4.9-3.7c-1.3-1.6-1.9-3.7-1.9-6.3c0-2.9,0.6-5.4,1.8-7.6c1.2-2.1,2.8-3.8,4.8-5.2c2-1.3,4.3-2.3,6.9-2.9
		c2.6-0.6,5.3-0.9,8-0.9c2.1,0,4,0.2,5.7,0.7c1.7,0.5,3.2,1.2,4.4,2.2c1.2,1,2.2,2.3,2.8,4c0.7,1.6,1,3.6,1,5.9c0,0.4,0,0.7,0.1,0.8
		c0,0.1,0,0.2,0,0.4c0,0.1,0,0.2,0,0.4c0.1,0.3,0.1,0.7,0.1,1.2c0,0.5,0,1,0,1.5c0,1.1-0.1,2-0.4,2.7c-0.3,0.7-0.9,1.1-1.7,1.1
		c-0.1,0-0.4-0.1-0.9-0.3c-0.5-0.2-1-0.4-1.5-0.7c-0.5-0.3-1-0.6-1.4-0.9c-0.4-0.3-0.7-0.6-0.7-0.8c0.4-1.7,0.7-3.1,0.7-4.3
		c0-1.9-0.6-3.3-1.8-4.3c-1.2-1-3.4-1.5-6.5-1.5c-1.4,0-3.1,0.1-4.9,0.3c-1.8,0.2-3.6,0.6-5.2,1.2c-1.6,0.6-3,1.4-4.1,2.5
		c-1.1,1.1-1.6,2.4-1.6,4.1c0,0.6,0.2,1.2,0.7,1.7c0.4,0.5,1,0.9,1.6,1.4c0.6,0.4,1.3,0.7,2,1c0.7,0.2,1.4,0.4,2,0.6
		c0.9,0.1,1.9,0.3,2.9,0.4c1,0.2,2.1,0.3,3.2,0.4c2.1,0.3,4.3,0.7,6.6,1.1c2.3,0.4,4.3,1,6.2,1.9c1.8,0.9,3.4,2.1,4.6,3.5
		c1.2,1.5,1.8,3.5,1.9,6c0.1,3-0.8,5.2-2.8,6.7c-2,1.5-4.6,2.6-8,3.3c0.8,0.2,1.6,0.5,2.3,0.7c0.7,0.2,1.5,0.5,2.3,0.8
		c1.1,0.6,2,1.2,2.7,2c0.7,0.8,1.4,1.6,1.9,2.5c0.5,0.9,0.9,1.8,1.1,2.7c0.2,0.9,0.3,1.7,0.3,2.5C797.7,116,797.6,117.1,797.3,117.9
		z"/>
	<path class="st1" d="M786.9,47.8c0.3,1.3,0.4,2.3,0.2,3c-0.2,0.7-0.9,1.3-2.3,1.8c-1.1,0.4-1.8,0.8-2.2,1.4
		c-0.4,0.6-0.7,1.2-0.7,1.9c0,1.1,0.5,2,1.6,2.9c1.1,0.9,2.7,1.4,4.8,1.5c0.7,0.1,1.6,0,2.5,0s1.8-0.3,2.6-0.7
		c0.8-0.3,1.4-0.8,2-1.3c0.6-0.5,0.8-1.2,0.8-2.1c0.1-1.9-0.5-3.2-1.5-4c-1.1-0.7-2.3-0.9-3.7-0.4c-0.2-0.1-0.3-0.4-0.3-1.1
		c0-0.7,0-1.4,0.1-2.1c0.1-0.7,0.2-1.4,0.3-2.1c0.1-0.6,0.3-0.9,0.5-0.9c2.9,0.4,5,1.6,6.4,3.4c1.4,1.8,2.1,4.1,2,6.9
		c-0.1,1.7-0.4,3.2-1.1,4.5c-0.7,1.2-1.5,2.3-2.6,3c-1.1,0.8-2.3,1.4-3.7,1.7c-1.4,0.4-2.8,0.6-4.3,0.6c-2.6,0-4.9-0.7-6.8-2
		c-1.9-1.3-3-3.4-3.4-6.3c0-0.4,0-1,0-2c0-1,0.2-2,0.5-3.2c0.3-1.1,1-2.3,1.9-3.4c0.9-1.1,2.3-2,4.1-2.7l-0.1,0.1
		C785.8,45.4,786.6,46,786.9,47.8z"/>
	<path class="st1" d="M820.1,107.6c0-1.2,0.4-2.3,1.3-3.2h-0.1c0.2-0.2,0.7-0.4,1.4-0.7c0.1,0,0.2-0.1,0.5-0.2
		c0.6-0.2,1.3-0.5,2.1-0.8c0.9-0.3,1.7-0.7,2.6-1c0.9-0.3,1.7-0.7,2.4-0.9c0.7-0.3,1.2-0.5,1.4-0.6c1.9-0.7,4.3-1.9,7.1-3.4
		c2.8-1.6,5.6-3.4,8.4-5.5c2.8-2.1,5.2-4.3,7.4-6.8c2.2-2.5,3.5-5,4.1-7.5c-0.1-1.5-0.7-2.8-1.9-3.9c-1.1-1.1-2.4-2-4-2.7
		c-1.5-0.7-3.1-1.2-4.8-1.5c-1.7-0.3-3.1-0.5-4.3-0.5c-1.5,0-3.1,0.1-4.9,0.4c-1.8,0.2-3.5,0.7-5.2,1.3c-1.6,0.6-3.1,1.4-4.4,2.5
		c-1.3,1-2.2,2.3-2.7,3.8v-0.1c-0.3,1.6-0.5,2.7-0.5,3.4c0,1.9,0.5,3.5,1.5,4.9c1,1.4,2.1,2.6,3.4,3.6c1.3,1,2.5,1.7,3.7,2.2
		c1.2,0.5,2,0.8,2.4,0.9v1.1c0,0.4,0,0.8,0,1.3c0,0.5-0.1,0.9-0.2,1.4c-0.2,0.4-0.4,0.8-0.7,1.1c-0.3,0.3-0.7,0.5-1.3,0.5
		c-2.1,0-3.9-0.6-5.5-1.7c-1.6-1.1-2.9-2.6-4.1-4.4c-1.1-1.8-2-3.7-2.6-5.9c-0.6-2.1-0.9-4.2-0.9-6.2c0-3,0.7-5.6,2-7.7
		c1.3-2.2,3-4,5.1-5.4c2.1-1.4,4.5-2.5,7.1-3.2c2.6-0.7,5.3-1,7.9-1c2.4,0,4.8,0.3,7,1c2.3,0.7,4.3,1.7,6,3c1.7,1.3,3.1,3,4.1,5.1
		c1,2.1,1.5,4.4,1.5,7.1c0,0.8,0,1.5,0,2.1c0,0.6-0.2,1.3-0.5,2c0.8,0.1,1.4,0.5,1.6,1.1c0.3,0.6,0.4,1.4,0.4,2.2
		c0,0.7,0,1.3-0.1,1.9c-0.1,0.6-0.2,1.2-0.3,1.8c-0.1,0.2-0.1,0.4-0.1,0.5c0,0.2,0,0.3-0.1,0.5c-0.1,0.2-0.1,0.5-0.1,0.7
		c0,0.2-0.1,0.4-0.1,0.7c-0.1,0.6-0.2,1.1-0.3,1.6c-0.1,0.5-0.1,0.9-0.1,1.3c0,1.1,0.1,2.3,0.2,3.4c0.1,1.2,0.3,2.3,0.5,3.4
		c0.2,1.1,0.4,2.1,0.7,2.9c0.2,0.8,0.5,1.4,0.7,1.8c0,0.3-0.1,0.7-0.2,1.3c-0.1,0.6-0.3,1.1-0.6,1.6c-0.3,0.5-0.6,1-1,1.4
		c-0.4,0.4-0.8,0.6-1.3,0.6c-1.4,0-2.9,0-4.4-0.1c-1.5-0.1-2.9-0.2-4.2-0.3c-0.2,0-0.5,0-0.8,0c-0.3,0-0.6,0-0.8,0
		c-1.1-0.1-2.3-0.2-3.4-0.3c-1.2-0.1-2.3-0.1-3.3-0.1c-1.9,0-3.8,0-5.8,0.1c-2,0.1-4,0.2-5.9,0.4c-2,0.2-3.8,0.4-5.6,0.7
		c-1.8,0.2-3.3,0.5-4.7,0.7c-1.2,0-1.9-0.4-2.3-1.2C820.3,109.1,820.1,108.4,820.1,107.6z M858.4,102.4c-0.4-1.9-0.7-3.8-0.8-5.5
		c-0.2-1.7-0.3-3.6-0.3-5.5v-0.1c-1.9,2.2-4,4.2-6.2,5.9c-2.2,1.7-4.7,3.3-7.6,4.8c2.2,0.1,4.5,0.2,6.9,0.2
		C852.9,102.2,855.6,102.3,858.4,102.4z"/>
	<path class="st1" d="M910,63c2.3,0,4.3,0.4,6,1.2c1.7,0.8,3.1,1.9,4.3,3.2c1.2,1.3,2.1,2.8,2.8,4.3c0.7,1.6,1.1,3.2,1.4,4.7
		c1.1-1.9,2.4-3.6,4-5.2c1.6-1.6,3.6-2.4,5.9-2.4c1.6,0,3,0.4,4.1,1.1c1.1,0.7,2,1.6,2.7,2.6c0.7,1,1.2,2.1,1.5,3.3
		c0.3,1.2,0.6,2.3,0.7,3.3c0.1,0.6,0.1,1.3,0,2.2c0,0.9-0.1,1.9-0.1,3c-0.1,1.1-0.1,2.2-0.2,3.3s-0.2,2.2-0.2,3.2
		c-0.1,1.1-0.2,2.1-0.3,3c-0.1,1-0.1,1.6-0.1,2c-0.1,1.2,0,2.4,0.1,3.5c0.2,1.2,0.5,2.2,1,3.2c0.5,0.9,1.2,1.7,2.2,2.3
		c1,0.6,2.2,0.9,3.7,0.9c2.9,0,5.1-0.6,6.8-1.9c1.6-1.3,2.9-2.9,3.7-4.9c0.8-2,1.4-4.2,1.6-6.6c0.2-2.4,0.4-4.8,0.4-7
		c0-2.8-0.2-5.5-0.7-8c-0.5-2.5-1.7-4.9-3.6-7c-0.8-0.9-1.8-1.7-2.8-2.2c-1.1-0.5-2-0.9-2.8-1.1c-0.9-0.2-1.4-0.7-1.5-1.4
		c-0.1-0.7-0.2-1.5-0.3-2.5v-0.7c0-0.4,0.1-1.1,0.3-2c0.2-0.9,0.7-1.4,1.7-1.7c0.4,0,1,0.2,1.7,0.6c0-0.1,0-0.1,0.1-0.1
		c2.5,1.1,4.6,2.6,6.3,4.5c1.6,1.9,2.9,3.9,3.9,6.2c0.9,2.3,1.6,4.7,1.9,7.3c0.3,2.6,0.5,5.1,0.5,7.7c0,2.9-0.2,6-0.5,9.4
		c-0.3,3.3-1.1,6.4-2.3,9.3c-1.2,2.9-2.9,5.2-5.2,7.1c-2.3,1.9-5.3,2.8-9.2,2.8c-2.4,0-4.3-0.5-5.9-1.4c-1.6-0.9-2.9-2.2-3.8-3.7
		c-1-1.6-1.6-3.4-2-5.4c-0.4-2.1-0.5-4.2-0.4-6.4c0-0.2,0-0.6,0-1c0-0.4,0.1-0.8,0.1-1.1v-0.4c0.1-1.2,0.2-2.5,0.4-4.1
		c0.1-1.5,0.2-3,0.2-4.4c0-1.1-0.1-2.2-0.2-3.3c-0.1-1.1-0.3-2-0.6-2.8c-0.3-0.8-0.7-1.5-1.2-2c-0.5-0.5-1.1-0.7-1.9-0.7
		c-1.9,0-3.4,0.6-4.5,1.8c-1.2,1.2-2.1,2.8-2.7,4.7c-0.7,1.9-1.1,4.1-1.3,6.5c-0.2,2.4-0.3,4.7-0.3,7c0,1.8,0,3.5,0.1,5.1
		c0.1,1.6,0.2,3,0.3,4.1c0,0.2,0,0.4,0,0.5c0,0.2,0,0.3,0,0.4v0.9c-0.3,0.8-0.8,1.2-1.5,1.1c-0.7-0.1-1.4-0.3-2.1-0.7
		c-0.7-0.4-1.4-0.9-1.9-1.5c-0.6-0.6-0.8-1-0.8-1.2c0-1.4,0-2.8,0-4.2c0-1.4,0.1-2.9,0.2-4.4c0.1-1.6,0.2-3.2,0.3-4.9
		c0.1-1.7,0.1-3.4,0.1-5.2c0-1.7-0.1-3.5-0.3-5.5c-0.2-2-0.6-3.8-1.4-5.4c-0.7-1.6-1.7-3-3-4.1c-1.3-1.1-3.1-1.6-5.3-1.6
		c-0.6,0-1.2,0-1.9,0c-0.7,0-1.4,0.1-2.1,0.3c2.4,2.4,4.1,5.3,5.2,8.7c1.1,3.4,1.7,7.1,1.7,11c0,2.4-0.3,4.9-0.9,7.4
		c-0.6,2.5-1.5,4.8-2.8,6.8c-1.2,2.1-2.7,3.7-4.5,5c-1.8,1.3-3.9,2-6.2,2c-2.4,0-4.5-0.7-6.3-2c-1.9-1.3-3.4-3-4.7-5
		c-1.3-2.1-2.2-4.3-2.9-6.9c-0.7-2.5-1-5.1-1-7.6c-0.1-4.8,0.6-8.9,1.9-12c1.3-3.2,3.4-5.8,6.2-8c-1.4-0.4-2.8-0.6-4-0.6
		c-2,0-3.8,0.4-5.5,1.2c-1.7,0.8-3.2,1.9-4.5,3.4c-1.3,1.4-2.3,3.1-3,5.1c-0.7,2-1.1,4.1-1.1,6.4c0,2.4,0.4,4.8,1.1,7.5
		c0.7,2.6,1.7,4.8,2.9,6.7c0.9,1.2,1.9,2.1,3.1,2.7c1.2,0.6,2.5,0.8,3.8,0.8c0.6,1.1,0.8,2.1,0.8,3.1c0,1.1-0.2,2-0.6,2.9
		c-0.4,0.9-0.9,1.3-1.4,1.3c-2.7,0-5-0.9-6.9-2.6c-1.9-1.7-3.4-3.9-4.6-6.4c-1.2-2.5-2-5.3-2.5-8.3c-0.5-3-0.7-5.6-0.7-8.1
		c0.1-3.4,0.6-6.4,1.7-9.2c1.1-2.8,2.5-5.1,4.3-7.1c1.8-2,3.9-3.5,6.4-4.7c2.5-1.1,5.1-1.7,7.9-1.7c1.7,0,3.3,0.2,5,0.6
		c1.6,0.4,3.4,1.1,5.3,2.1c1.6-0.7,3.3-1.2,5.3-1.6C906.3,63.2,908.2,63,910,63z M888.7,90.7c0.1,1.9,0.4,3.6,0.8,5.3
		c0.4,1.6,1,3.1,1.7,4.3c0.7,1.2,1.7,2.2,2.8,2.9c1.1,0.7,2.5,1.1,4.1,1.1c1.6,0,2.9-0.5,4.1-1.6c1.1-1.1,2.1-2.4,2.7-4
		c0.7-1.6,1.2-3.2,1.5-5c0.3-1.7,0.5-3.2,0.5-4.5c-0.1-2.1-0.3-4-0.8-5.9c-0.5-1.9-1.1-3.6-1.9-5c-0.8-1.5-1.6-2.6-2.6-3.5
		c-1-0.9-2-1.4-3-1.4c-0.7,0-1.5,0.3-2.3,0.8c-0.9,0.5-1.6,1.2-2.3,2c-1.7,1.5-3.1,3.5-4.1,6C888.9,84.6,888.5,87.5,888.7,90.7z"/>
	<path class="st1" d="M982.4,95.6c-0.1-1.7,0.1-3.6,0.5-5.5c0.4-2,1.1-3.8,2-5.5c0.9-1.7,2.1-3.1,3.6-4.1c1.5-1.1,3.3-1.6,5.5-1.6
		c1.8,0,3.4,0.4,4.7,1.3c1.3,0.8,2.4,1.9,3.2,3.2c0.8,1.3,1.5,2.8,1.9,4.4c0.4,1.6,0.6,3.2,0.6,4.7c0,0.6-0.2,1.3-0.5,2.3
		c-0.3,1-0.9,1.6-1.8,1.9c-0.7,0-1.3-0.3-1.5-0.9c-0.3-0.6-0.5-1.3-0.8-2.2c0-0.1,0-0.1,0-0.1c0,0,0-0.1,0-0.2
		c-0.2-0.7-0.4-1.6-0.6-2.4c-0.2-0.9-0.5-1.7-0.9-2.4c-0.4-0.7-1-1.3-1.7-1.7c-0.7-0.4-1.6-0.6-2.8-0.6c-1.2,0-2.3,0.3-3.1,0.8
		c-0.8,0.6-1.5,1.3-2.1,2.2c-0.6,0.9-0.9,2-1.2,3.2c-0.2,1.2-0.3,2.4-0.2,3.7c0.1,2.6,1,4.7,2.6,6.3c1.6,1.6,3.7,2.4,6.3,2.4
		c1.9,0,3.5-0.5,4.8-1.6c1.3-1.1,2.3-2.4,2.9-4.1c0.7-1.6,1.2-3.4,1.4-5.2c0.3-1.9,0.4-3.6,0.4-5.2c0-2.5-0.3-5-0.8-7.3
		c-0.6-2.3-1.4-4.4-2.7-6.2c-1.2-1.8-2.8-3.2-4.7-4.2c-1.9-1.1-4.3-1.6-7.1-1.6c-2.7,0-5.1,0.5-7.1,1.5c-2,1-3.7,2.4-5,4.1
		c-1.3,1.7-2.3,3.7-2.9,5.8c-0.7,2.2-1,4.4-1,6.7c0,2.1,0.3,4.2,0.8,6.4c0.6,2.1,1.3,4.1,2.1,6v-0.1c0.3,0.2,0.7,0.6,1.1,1.2
		c0.4,0.5,0.8,0.9,1.1,1.3c0.7,0.6,1.3,1.3,1.7,1.9c0.5,0.7,0.7,1.5,0.7,2.6v0.5c0,0.4,0,0.8,0,1.2c0,0.4,0,0.8-0.1,1.2
		c-0.1,0.4-0.3,0.7-0.5,1c-0.2,0.3-0.6,0.4-1,0.4c-0.7,0-1.4-0.2-2-0.7c-0.6-0.5-1.1-1-1.5-1.5c-1.3-1.5-2.4-3.1-3.3-4.9
		c-0.9-1.8-1.6-3.7-2.1-5.6c-0.6-2-0.9-3.9-1.2-5.9c-0.2-2-0.3-3.9-0.3-5.9c0-2.9,0.4-5.9,1.3-8.8c0.8-3,2.1-5.6,3.8-8
		c1.7-2.4,3.8-4.3,6.4-5.8c2.5-1.5,5.5-2.2,8.9-2.2c3.7,0,6.8,0.8,9.3,2.4c2.5,1.6,4.6,3.7,6.2,6.3c1.6,2.6,2.7,5.5,3.4,8.7
		c0.7,3.2,1,6.4,1,9.6c0,2.2-0.2,4.7-0.6,7.5c-0.4,2.7-1.1,5.3-2.1,7.7c-1.1,2.4-2.5,4.4-4.3,6c-1.8,1.6-4.2,2.4-7.1,2.4
		c-2.4,0-4.4-0.5-6.1-1.4c-1.7-0.9-3.1-2.2-4.2-3.7c-1.1-1.6-1.9-3.3-2.4-5.3C982.8,99.7,982.5,97.7,982.4,95.6z"/>
	<path class="st1" d="M1013,93.7c0-1.9,0.2-3.9,0.7-6.1c0.5-2.1,1.2-4,2.3-5.7c1.1-1.7,2.4-3.1,4.1-4.2s3.7-1.7,6.2-1.7
		c2.5,0,4.6,0.6,6.2,1.7c1.7,1.2,3,2.6,4,4.4c1,1.8,1.7,3.7,2.1,5.9c0.4,2.1,0.6,4.2,0.6,6.1c0,1.9-0.2,3.9-0.7,5.9
		c-0.5,2-1.2,3.9-2.2,5.5c-1,1.7-2.3,3-3.9,4.1c-1.6,1.1-3.5,1.6-5.8,1.6c-2.4,0-4.5-0.5-6.2-1.5c-1.7-1-3.2-2.4-4.2-4.1
		c-1.1-1.7-1.9-3.6-2.4-5.6C1013.2,97.9,1013,95.8,1013,93.7z M1018.1,93.7c0,2.6,0.7,4.8,2.2,6.4c1.5,1.7,3.5,2.5,6.2,2.5
		c1.2,0,2.3-0.2,3.3-0.7c1-0.5,1.8-1.2,2.5-2c0.7-0.8,1.2-1.8,1.5-2.8c0.3-1.1,0.5-2.2,0.5-3.4c0-1.1-0.2-2.2-0.5-3.4
		c-0.3-1.1-0.9-2.1-1.5-2.9c-0.7-0.8-1.5-1.5-2.5-2.1c-1-0.5-2-0.8-3.2-0.8c-2.8,0-4.9,0.9-6.3,2.6
		C1018.8,88.9,1018.1,91.1,1018.1,93.7z"/>
</g>
</svg>
